# xmcd
#
# Track frame offsets: 
#        150
#        13768
#        23239
#        36051
#        54264
#        61047
#        72758
#        84648
#        97805
#        111410
#        125450
#        135471
#        146478
#        157498
#        167097
#        182328
#
# Disc length: 2545 seconds
#
# Revision: 1
# Processed by: cddbd v1.5.2PL0 Copyright (c) Steve Scherf et al.
# Submitted via: ExactAudioCopy v1.3
#
DISCID=d009ef10
DTITLE=原野三重唱 - 原聲經典 CD3
DYEAR=2003
DGENRE=中文流行
TTITLE0=雨不灑花花不紅
TTITLE1=滿江紅
TTITLE2=蘇武牧羊
TTITLE3=西子姑娘
TTITLE4=拉縴行
TTITLE5=長城謠
TTITLE6=道情
TTITLE7=牧歌
TTITLE8=挑夫之歌
TTITLE9=孟姜女
TTITLE10=小河淌水
TTITLE11=燕子
TTITLE12=西江月
TTITLE13=不唱山歌心不爽
TTITLE14=天倫歌
TTITLE15=樵夫歌
EXTD=
EXTT0=
EXTT1=
EXTT2=
EXTT3=
EXTT4=
EXTT5=
EXTT6=
EXTT7=
EXTT8=
EXTT9=
EXTT10=
EXTT11=
EXTT12=
EXTT13=
EXTT14=
EXTT15=
PLAYORDER=
